# xmcd
#
# Track frame offsets: 
#        150
#        15943
#        34723
#        52231
#        69938
#        85042
#        102133
#        119320
#        135812
#        153667
#        170459
#        188847
#        207731
#        225331
#
# Disc length: 3265 seconds
#
# Revision: 0
# Processed by: cddbd v1.5.2PL0 Copyright (c) Steve Scherf et al.
# Submitted via: ExactAudioCopyFreeDBPlugin 1.0
#
DISCID=ab0cbf0e
DTITLE=Marco di Mauro - Marco di Mauro
DYEAR=2011
DGENRE=Pop
TTITLE0=Pasará
TTITLE1=Nada de Nada
TTITLE2=Siempre
TTITLE3=Mi vida sabe a ti
TTITLE4=Hazme compañia
TTITLE5=La fuerza de gravedad
TTITLE6=Andar contigo
TTITLE7=Rayo de luz
TTITLE8=Algo que me falta
TTITLE9=¿Qué pasó?
TTITLE10=Volamos
TTITLE11=Niente di niente
TTITLE12=La mia vita sa di te
TTITLE13=Marco di Mauro feat Maite Perroni - A partir de hoy
EXTD=
EXTT0=
EXTT1=
EXTT2=
EXTT3=
EXTT4=
EXTT5=
EXTT6=
EXTT7=
EXTT8=
EXTT9=
EXTT10=
EXTT11=
EXTT12=
EXTT13=
PLAYORDER=
